<?xml version="1.0" encoding="utf-8"?>
<!-- Generator: Adobe Illustrator 19.2.1, SVG Export Plug-In . SVG Version: 6.00 Build 0)  -->
<svg version="1.1" xmlns="http://www.w3.org/2000/svg" xmlns:xlink="http://www.w3.org/1999/xlink" x="0px" y="0px"
	 viewBox="0 0 1024 1024" style="enable-background:new 0 0 1024 1024;" xml:space="preserve">
<style type="text/css">
	.st0{display:none;}
	.st1{display:inline;fill:#22B573;}
	
		.st2{clip-path:url(#SVGID_2_);fill:none;stroke:#FFFFFF;stroke-width:100;stroke-linecap:round;stroke-linejoin:round;stroke-miterlimit:10;}
	.st3{fill:none;stroke:#FFFFFF;stroke-width:70;stroke-linecap:round;stroke-miterlimit:10;}
	.st4{fill:none;stroke:#FFFFFF;stroke-width:100;stroke-linecap:round;stroke-miterlimit:10;}
	.st5{fill:#FFFFFF;}
</style>
<g id="Layer_2" class="st0">
	<rect class="st1" width="1033" height="1033"/>
</g>
<g id="Layer_1">
	<g>
		<defs>
			<polygon id="SVGID_1_" points="720,516.5 1013,516.5 1013,0 -20,0 -20,1033 449.5,1024 445,764.5 318,684.5 348,304.5 600,308.8 
							"/>
		</defs>
		<clipPath id="SVGID_2_">
			<use xlink:href="#SVGID_1_"  style="overflow:visible;"/>
		</clipPath>
		<circle class="st2" cx="492" cy="512" r="389"/>
	</g>
	<line class="st3" x1="492" y1="522.2" x2="492" y2="255"/>
	<line class="st4" x1="581" y1="671" x2="492" y2="512"/>
	<circle class="st5" cx="492" cy="512" r="57"/>
	<path class="st5" d="M846.6,620.8l-81.9-81.9c-25.6-25.6-7.5-69.3,28.7-69.3h163.7c36.2,0,54.3,43.7,28.7,69.3L904,620.8
		C888.1,636.7,862.4,636.7,846.6,620.8z"/>
</g>
</svg>
